<svg width="178" height="29" viewBox="0 0 178 29" fill="none" xmlns="http://www.w3.org/2000/svg">
<g clip-path="url(#clip0)">
<rect x="0.5" y="11.5" width="177" height="44" rx="3.5" stroke="#8B9299"/>
</g>
<rect width="84" height="16" transform="translate(47)" fill="#161F28"/>
<path d="M57.5713 4.26367C56.6325 4.26367 55.8942 4.59635 55.3564 5.26172C54.8187 5.92708 54.5498 6.84538 54.5498 8.0166C54.5498 9.24251 54.8073 10.1699 55.3223 10.7988C55.8418 11.4277 56.5915 11.7422 57.5713 11.7422C57.9951 11.7422 58.4053 11.7012 58.8018 11.6191C59.1982 11.5326 59.6107 11.4232 60.0391 11.291V12.6924C59.2552 12.9886 58.3665 13.1367 57.373 13.1367C55.9102 13.1367 54.7868 12.6947 54.0029 11.8105C53.2191 10.9219 52.8271 9.65267 52.8271 8.00293C52.8271 6.96387 53.0163 6.05469 53.3945 5.27539C53.7773 4.49609 54.3288 3.89909 55.0488 3.48438C55.7689 3.06966 56.6143 2.8623 57.585 2.8623C58.6058 2.8623 59.5492 3.0765 60.415 3.50488L59.8271 4.86523C59.4899 4.70573 59.1322 4.56673 58.7539 4.44824C58.3802 4.3252 57.986 4.26367 57.5713 4.26367ZM71.3242 13H69.6836V8.49512H65.0762V13H63.4424V3.00586H65.0762V7.09375H69.6836V3.00586H71.3242V13ZM81.4062 13L80.4082 10.2246H76.5869L75.6094 13H73.8867L77.626 2.96484H79.4033L83.1426 13H81.4062ZM79.9775 8.81641L79.041 6.0957C78.9727 5.91341 78.877 5.6263 78.7539 5.23438C78.6354 4.84245 78.5534 4.55534 78.5078 4.37305C78.3848 4.93359 78.2048 5.54655 77.9678 6.21191L77.0654 8.81641H79.9775ZM94.0381 13H92.0352L87.1201 5.03613H87.0654L87.0996 5.48047C87.1634 6.32812 87.1953 7.10286 87.1953 7.80469V13H85.7119V3.00586H87.6943L92.5957 10.9287H92.6367C92.6276 10.8239 92.6094 10.4434 92.582 9.78711C92.5547 9.1263 92.541 8.61133 92.541 8.24219V3.00586H94.0381V13ZM106.253 13H104.25L99.335 5.03613H99.2803L99.3145 5.48047C99.3783 6.32812 99.4102 7.10286 99.4102 7.80469V13H97.9268V3.00586H99.9092L104.811 10.9287H104.852C104.842 10.8239 104.824 10.4434 104.797 9.78711C104.77 9.1263 104.756 8.61133 104.756 8.24219V3.00586H106.253V13ZM115.795 13H110.142V3.00586H115.795V4.38672H111.775V7.10742H115.542V8.47461H111.775V11.6123H115.795V13ZM119.212 13V3.00586H120.846V11.5986H125.077V13H119.212Z" fill="white"/>
<defs>
<clipPath id="clip0">
<rect width="178" height="18" fill="white" transform="translate(0 11)"/>
</clipPath>
</defs>
</svg>
